<?xml version="1.0" encoding="utf-8"?>
<!-- Generator: Adobe Illustrator 25.2.1, SVG Export Plug-In . SVG Version: 6.00 Build 0)  -->
<svg version="1.1" id="Layer_1" xmlns="http://www.w3.org/2000/svg" xmlns:xlink="http://www.w3.org/1999/xlink" x="0px" y="0px"
	 viewBox="0 0 6752 1602" style="enable-background:new 0 0 6752 1602;" xml:space="preserve">
<style type="text/css">
	.st0{font-family:'Roboto-Bold';}
	.st1{font-size:1296px;}
</style>
<g>
	<path d="M514.1,405.5c-16.6,75-27.7,155.2-30.5,239.7c-0.5,14.9,12.6,26.8,27.7,25c285.6-33.1,636.7-45.1,1035.9-1.9
		c16.5,1.8,30.2-12.7,27.1-28.8c-40.2-210.3-168.7-389.8-346-500.1c-8.6-5.4-19.7-5-27.9,0.9c-225.6,161.8-455.5,229.2-664.1,246
		C525.4,387.3,516.4,395,514.1,405.5z"/>
	<path d="M155.6,359.8c92,14.2,193.8,21.4,301.9,15.4c8.5-0.5,15.7-6.4,17.7-14.6C503,248.1,542.6,148.2,584.1,64.7
		c7.3-14.8-6.6-31.1-22.6-26.7C390.2,85.7,243.2,190.4,142.9,329.9C134.6,341.4,141.4,357.6,155.6,359.8z"/>
	<path d="M1583.3,729.9c-1.8-16.3-14.8-29.2-31.3-31c-399.8-43.7-751.5-31.9-1037.7,1c-18,2.1-31.5,17.2-31.2,35
		c0.9,66,7.1,134.2,19.8,204.3c3.1,17.2,18.7,29.4,36.5,28.7c50.2-2.2,102.7,1.3,157.5,11.7c180,34.2,384.6,143.1,611.3,370.6
		c13.7,13.8,36.2,14,50.1,0.4c141.6-137.5,229.4-328.5,229.4-539.8C1587.7,783.4,1586.2,756.4,1583.3,729.9z"/>
	<path d="M538.4,362.4c200.4-18.1,419.8-83.4,635.7-234.2c13.6-9.5,12.4-29.9-2.3-37.7C1063.2,32.8,938.8,0,806.7,0
		c-54.2,0-107,5.5-158,16c-6.7,1.4-12.3,5.6-15.5,11.6c-44.4,84.9-88.1,188.8-118.8,307.2C510.6,349.6,522.9,363.8,538.4,362.4z"/>
	<path d="M476.8,1032.3c-4.1-17.6-21.2-29.1-39.3-26.5c-128.2,18.1-239.5,72.8-332.4,140.4c-13.8,10.1-18.4,28.5-10.5,43.5
		c113.1,216.1,328.7,371.7,583.6,404.6c30.3,3.9,50.8-29.4,33.3-54C587.7,1365.7,514.4,1194.6,476.8,1032.3z"/>
	<path d="M695,1012.9c-55.9-10.6-109.4-14.1-160.5-11.6c-14.6,0.7-25,14.2-21.8,28.2c41,179.2,125.3,369.4,273.3,563.2
		c4.3,5.7,11.1,9.1,18.3,9.3c3.9,0.1,7.8,0.1,11.7,0.1c188.7,0,361.6-66.9,495.4-177.8c10.4-8.6,11.2-24.2,1.7-33.8
		C1083.8,1158.2,876.9,1047.4,695,1012.9z"/>
	<path d="M39,750.1c104-23.2,227.3-46.1,367.7-64.2c15-1.9,26.4-14.2,26.8-29.1c2.4-77.7,11.9-151.8,26.2-221.6
		c3.9-19.3-11.4-37.1-31.3-36.4c-102.5,3.8-199-4-286.3-18.1c-12.3-2-24.7,3.5-31.2,14c-59.5,95.7-98,205.4-109.3,322.9
		C-0.5,738.2,18.5,754.7,39,750.1z"/>
	<path d="M427.8,984.5c17-2.4,28.5-18.3,25.5-34.9c-12.4-69.1-18.6-136.4-19.6-201.5c-0.3-17.9-16.4-31.5-34.5-29.2
		C254.3,737.8,127.8,761.8,22.3,786c-13.7,3.1-23.5,15-23.6,28.9c0,2.3,0,4.6,0,6.9c0,101,20.1,197.3,56.4,285.4
		c7.4,18,30.1,24.3,46,12.9C192.9,1054.6,302.2,1002,427.8,984.5z"/>
</g>
<text transform="matrix(0.6778 0 0 1 2061.4734 1228.5104)" class="st0 st1">KTH</text>
<text transform="matrix(0.6307 0 0 1 4235.2461 1228.5107)" class="st0 st1">Basket</text>
</svg>
